<?xml version="1.0" encoding="iso-8859-1"?>
<!-- Generator: Adobe Illustrator 19.0.0, SVG Export Plug-In . SVG Version: 6.00 Build 0)  -->
<svg version="1.1" id="Layer_1" xmlns="http://www.w3.org/2000/svg" xmlns:xlink="http://www.w3.org/1999/xlink" x="0px" y="0px"
	 viewBox="0 0 512.013 512.013" style="enable-background:new 0 0 512.013 512.013;" xml:space="preserve" fill="white">
<g>
	<g>
		<path d="M343.501,2.345c-3.422-1.57-7.074-2.338-10.692-2.338c-5.999,0-11.93,2.108-16.666,6.161L144.128,153.606H25.6
			c-14.14,0-25.6,11.46-25.6,25.6v153.6c0,14.14,11.46,25.6,25.6,25.6h118.528l172.015,147.439
			c4.727,4.053,10.667,6.161,16.666,6.161c3.627,0,7.27-0.768,10.692-2.338c9.08-4.181,14.899-13.261,14.899-23.262v-460.8
			C358.4,15.605,352.58,6.526,343.501,2.345z M332.8,486.406l-179.2-153.6h-128v-153.6h128l179.2-153.6V486.406z"/>
	</g>
</g>
<g>
	<g>
		<path d="M508.262,298.153l-42.163-42.146l42.146-42.146c5-5.001,5-13.099,0-18.099c-5.001-5.001-13.099-5.001-18.099,0
			L448,237.907l-42.146-42.146c-5-5-13.099-5-18.099,0c-5,5.001-5,13.099,0,18.099l42.146,42.146l-42.146,42.146
			c-5,5.001-5,13.099,0,18.099c2.5,2.5,5.777,3.746,9.054,3.746c3.277,0,6.554-1.246,9.054-3.746l42.146-42.146l42.146,42.146
			c2.5,2.5,5.777,3.746,9.054,3.746c3.277,0,6.554-1.246,9.054-3.746C513.263,311.251,513.263,303.153,508.262,298.153z"/>
	</g>
</g>
<g>
</g>
<g>
</g>
<g>
</g>
<g>
</g>
<g>
</g>
<g>
</g>
<g>
</g>
<g>
</g>
<g>
</g>
<g>
</g>
<g>
</g>
<g>
</g>
<g>
</g>
<g>
</g>
<g>
</g>
</svg>
